<svg width="178" height="178" viewBox="0 0 178 178" fill="none" xmlns="http://www.w3.org/2000/svg">
<g filter="url(#filter0_d)">
<circle cx="89" cy="85" r="85" fill="black"/>
<circle cx="89" cy="85" r="82" stroke="black" stroke-width="6"/>
</g>
<path d="M28.9435 95.5113C25.5163 95.3438 22.6956 94.1101 20.4814 91.8103L22.4976 88.8967C22.5946 88.9591 22.6615 89.134 22.6983 89.4214C22.7345 89.6769 22.7851 89.8361 22.8502 89.899C24.4459 91.5689 26.4617 92.5118 28.8976 92.7276L28.7235 82.1691C26.1496 81.3474 24.2452 80.3707 23.0104 79.2389C21.775 78.0751 21.1431 76.6293 21.1146 74.9016C21.0856 73.1418 21.7484 71.6107 23.1031 70.3082C24.4898 69.0051 26.2844 68.1754 28.4868 67.819L28.4393 64.9394L31.5109 64.8888C31.5434 64.9202 31.5602 64.968 31.5612 65.032C31.5623 65.0959 31.5164 65.2247 31.4236 65.4183C31.3302 65.5798 31.2689 65.7409 31.2395 65.9014L31.2696 67.7251C34.2505 67.996 36.6545 69.1885 38.4816 71.3027L36.4606 73.9284C36.3316 73.8665 36.233 73.7081 36.1647 73.4532C36.0965 73.1983 36.0136 73.0236 35.9161 72.9292C34.8071 71.6673 33.2739 70.8765 31.3163 70.5567L31.4691 79.8195C34.364 80.6999 36.4286 81.6899 37.6629 82.7897C38.9292 83.889 39.5782 85.3985 39.6099 87.3183C39.6299 88.5341 39.3135 89.7235 38.6606 90.8864C38.0391 92.0168 37.1271 92.992 35.9245 93.8119C34.7218 94.6319 33.3222 95.151 31.7256 95.3694L31.7754 98.393L28.9918 98.4389L28.9435 95.5113ZM28.5319 70.5547C27.1587 70.7373 26.094 71.187 25.3377 71.9035C24.6134 72.6196 24.2595 73.4735 24.2758 74.4654C24.3059 76.2891 25.7702 77.7532 28.6689 78.8575L28.5319 70.5547ZM31.6797 92.5857C33.1787 92.273 34.3525 91.6455 35.2011 90.7034C36.0817 89.7608 36.5125 88.7135 36.4935 87.5617C36.475 86.4418 36.0763 85.5523 35.2973 84.893C34.5498 84.2013 33.2914 83.5819 31.5221 83.035L31.6797 92.5857Z" fill="#0FBB00"/>
<path d="M46.4263 93.1106L52.0416 93.018L51.7716 76.6522L46.4444 76.7401L46.3984 73.9565L55.1812 73.8116L55.4971 92.961L60.6324 92.8763L60.6783 95.6599L46.4722 95.8942L46.4263 93.1106ZM53.1855 69.2359C52.5136 69.247 51.9337 69.0165 51.4459 68.5445C50.958 68.0725 50.7086 67.5005 50.6975 66.8286C50.6859 66.1247 50.9001 65.5291 51.3401 65.0418C51.8121 64.5539 52.4001 64.3042 53.104 64.2926C53.7759 64.2815 54.356 64.528 54.8444 65.032C55.3643 65.5035 55.6297 66.0752 55.6408 66.7471C55.6519 67.419 55.4054 67.9991 54.9014 68.4875C54.4294 68.9754 53.8574 69.2248 53.1855 69.2359Z" fill="#EE7200"/>
<path d="M67.1316 73.6145L70.2992 73.5623L70.3348 75.722C70.8335 74.9136 71.4789 74.2629 72.2709 73.7698C73.0623 73.2447 73.89 72.975 74.7539 72.9607C75.7137 72.9449 76.5506 73.2351 77.2646 73.8314C78.0105 74.4272 78.4871 75.1875 78.6944 76.1122C79.0945 75.1454 79.7377 74.3667 80.6241 73.776C81.51 73.1533 82.4968 72.833 83.5847 72.8151C85.0245 72.7913 86.105 73.3016 86.8264 74.3458C87.5791 75.3575 87.9373 76.6958 87.9007 78.3606L88.1786 95.2064L85.011 95.2586L84.7545 79.7087C84.7244 77.885 84.5289 76.704 84.168 76.1659C83.8071 75.6278 83.2907 75.3643 82.6188 75.3753C82.0428 75.3848 81.4874 75.666 80.9524 76.2189C80.4175 76.7718 79.9812 77.4831 79.6435 78.3528C79.3372 79.19 79.191 80.0245 79.2047 80.8564L79.4437 95.3504L76.2282 95.4035L75.9765 80.1415C75.9469 78.3498 75.7511 77.1528 75.3892 76.5507C75.0587 75.9161 74.4295 75.6064 73.5016 75.6217C73.0217 75.6297 72.5294 75.8618 72.0249 76.3182C71.5518 76.742 71.1619 77.3566 70.8551 78.1617C70.5478 78.9349 70.4026 79.8334 70.4195 80.8573L70.6609 95.4953L67.4934 95.5475L67.1316 73.6145Z" fill="#00D1FF"/>
<path d="M101.007 72.5757C104.143 72.524 106.54 73.3006 108.198 74.9054C109.889 76.5098 110.767 79.2637 110.831 83.1671L111.023 94.8296L107.28 94.8913L107.225 91.5318C105.923 94.1456 103.449 95.4826 99.8017 95.5427C97.37 95.5828 95.4573 95.0703 94.0636 94.0051C92.6693 92.908 91.9571 91.4475 91.927 89.6238C91.9017 88.088 92.3754 86.736 93.3483 85.5678C94.3212 84.3996 95.6345 83.4978 97.2882 82.8624C98.9734 82.1946 100.824 81.844 102.84 81.8107C104.663 81.7807 106.313 81.8495 107.788 82.0172C107.555 79.5567 106.871 77.8397 105.734 76.8663C104.63 75.8604 102.99 75.3754 100.814 75.4113C99.726 75.4292 98.6736 75.6546 97.6566 76.0874C96.6715 76.5197 95.7697 77.1427 94.951 77.9563L93.2348 75.7763C95.2488 73.6948 97.8395 72.628 101.007 72.5757ZM100.094 92.8975C102.462 92.8585 104.322 92.1397 105.675 90.7412C107.028 89.3107 107.747 87.2826 107.831 84.6568C106.388 84.4566 104.834 84.3702 103.17 84.3976C100.739 84.4378 98.8255 84.8694 97.4309 85.6925C96.0363 86.5156 95.3525 87.743 95.3794 89.3748C95.4189 91.7745 96.9905 92.9487 100.094 92.8975Z" fill="#FFE600"/>
<path d="M126.438 95.1034C125.126 95.125 123.906 94.8571 122.776 94.2997C121.646 93.7102 120.689 92.8779 119.903 91.8027L118.75 94.7021L116.543 94.7385L116.016 62.8229L119.952 62.758L119.957 63.0939C119.768 63.289 119.644 63.4991 119.584 63.7242C119.555 63.9487 119.546 64.3329 119.555 64.8768L119.74 76.1073C120.424 74.9118 121.353 73.9524 122.525 73.2289C123.729 72.505 124.955 72.1327 126.203 72.1121C128.954 72.0667 131.162 72.9905 132.825 74.8833C134.489 76.7761 135.351 79.5623 135.412 83.2418C135.453 85.7374 135.056 87.8883 134.222 89.6943C133.387 91.4683 132.273 92.8148 130.88 93.7339C129.487 94.621 128.006 95.0775 126.438 95.1034ZM125.955 92.0389C127.683 92.0104 129.112 91.3148 130.242 89.952C131.371 88.5571 131.911 86.4039 131.863 83.4923C131.817 80.6767 131.238 78.574 130.127 77.1841C129.047 75.7617 127.596 75.0656 125.772 75.0956C123.98 75.1252 122.538 75.9491 121.444 77.5674C120.351 79.1856 119.825 81.2586 119.867 83.7862C119.958 89.3535 121.988 92.1044 125.955 92.0389Z" fill="#00FFB2"/>
<path d="M140.178 72.4097L143.681 72.3519L143.752 76.6713C144.206 75.0636 145.018 73.8501 146.189 73.0307C147.359 72.2112 148.745 71.7883 150.344 71.762C152.008 71.7345 153.535 72.1414 154.925 72.9826C156.347 73.7912 157.487 75.0366 158.347 76.7187C159.207 78.4007 159.657 80.4576 159.697 82.8892C159.738 85.3529 159.341 87.4877 158.507 89.2937C157.672 91.0677 156.542 92.4146 155.117 93.3342C153.724 94.2533 152.227 94.726 150.628 94.7524C149.316 94.7741 148.079 94.4904 146.917 93.9015C145.755 93.3126 144.797 92.4803 144.043 91.4045L144.223 102.299L140.672 102.358L140.178 72.4097ZM150.001 91.6903C151.761 91.6613 153.222 90.9811 154.384 89.6498C155.578 88.2859 156.15 86.1002 156.1 83.0926C156.055 80.3729 155.493 78.3019 154.413 76.8795C153.333 75.4252 151.817 74.7141 149.866 74.7463C148.042 74.7763 146.567 75.5688 145.44 77.1236C144.345 78.6458 143.823 80.9588 143.874 84.0623C143.98 86.5889 144.572 88.4994 145.649 89.7938C146.727 91.0882 148.177 91.7204 150.001 91.6903Z" fill="#FF000F"/>
<path d="M28.9435 95.5113L29.5435 95.5014L29.5342 94.9394L28.9728 94.912L28.9435 95.5113ZM20.4814 91.8103L19.988 91.4689L19.7085 91.8727L20.0491 92.2265L20.4814 91.8103ZM22.4976 88.8967L22.8221 88.392L22.3343 88.0783L22.0042 88.5553L22.4976 88.8967ZM22.6983 89.4214L22.103 89.4975L22.1042 89.5057L22.6983 89.4214ZM22.8502 89.899L23.2839 89.4845L23.2758 89.476L23.2674 89.4678L22.8502 89.899ZM28.8976 92.7276L28.8447 93.3253L29.5085 93.3841L29.4975 92.7178L28.8976 92.7276ZM28.7235 82.1691L29.3234 82.1592L29.3163 81.7285L28.9059 81.5975L28.7235 82.1691ZM23.0104 79.2389L22.5989 79.6757L22.605 79.6812L23.0104 79.2389ZM23.1031 70.3082L22.6922 69.8709L22.6873 69.8756L23.1031 70.3082ZM28.4868 67.819L28.5826 68.4113L29.0953 68.3284L29.0867 67.8091L28.4868 67.819ZM28.4393 64.9394L28.4294 64.3395L27.8295 64.3494L27.8394 64.9493L28.4393 64.9394ZM31.5109 64.8888L31.9281 64.4576L31.7495 64.2847L31.501 64.2888L31.5109 64.8888ZM31.4236 65.4183L31.9431 65.7184L31.9546 65.6985L31.9646 65.6777L31.4236 65.4183ZM31.2395 65.9014L30.6493 65.7934L30.6386 65.8519L30.6396 65.9113L31.2395 65.9014ZM31.2696 67.7251L30.6697 67.735L30.6786 68.2739L31.2153 68.3227L31.2696 67.7251ZM38.4816 71.3027L38.9571 71.6686L39.2556 71.2807L38.9356 70.9104L38.4816 71.3027ZM36.4606 73.9284L36.2012 74.4694L36.6396 74.6796L36.9361 74.2943L36.4606 73.9284ZM36.1647 73.4532L35.5851 73.6083L35.5851 73.6083L36.1647 73.4532ZM35.9161 72.9292L35.4654 73.3253L35.4814 73.3435L35.4989 73.3604L35.9161 72.9292ZM31.3163 70.5567L31.413 69.9646L30.7046 69.8489L30.7164 70.5666L31.3163 70.5567ZM31.4691 79.8195L30.8692 79.8294L30.8764 80.2664L31.2945 80.3935L31.4691 79.8195ZM37.6629 82.7897L37.2637 83.2378L37.2696 83.2428L37.6629 82.7897ZM38.6606 90.8864L38.1374 90.5926L38.1348 90.5973L38.6606 90.8864ZM35.9245 93.8119L35.5865 93.3162L35.5865 93.3162L35.9245 93.8119ZM31.7256 95.3694L31.6443 94.7749L31.1169 94.847L31.1257 95.3793L31.7256 95.3694ZM31.7754 98.393L31.7853 98.9929L32.3853 98.983L32.3754 98.3831L31.7754 98.393ZM28.9918 98.4389L28.3919 98.4488L28.4018 99.0487L29.0017 99.0388L28.9918 98.4389ZM28.5319 70.5547L29.1318 70.5448L29.1207 69.871L28.4528 69.9599L28.5319 70.5547ZM25.3377 71.9035L24.925 71.4679L24.9159 71.4768L25.3377 71.9035ZM28.6689 78.8575L28.4552 79.4182L29.2834 79.7337L29.2688 78.8476L28.6689 78.8575ZM31.6797 92.5857L31.0797 92.5956L31.0917 93.3213L31.8022 93.1731L31.6797 92.5857ZM35.2011 90.7034L34.7626 90.2938L34.7553 90.3019L35.2011 90.7034ZM35.2973 84.893L34.8898 85.3334L34.8995 85.3424L34.9097 85.351L35.2973 84.893ZM31.5221 83.035L31.6993 82.4618L30.9086 82.2174L30.9222 83.0449L31.5221 83.035ZM28.9728 94.912C25.6858 94.7513 23.0134 93.5751 20.9136 91.3942L20.0491 92.2265C22.3778 94.6451 25.3468 95.9362 28.9142 96.1106L28.9728 94.912ZM20.9747 92.1517L22.991 89.2381L22.0042 88.5553L19.988 91.4689L20.9747 92.1517ZM22.173 89.4013C22.1163 89.3648 22.0847 89.3254 22.071 89.3056C22.0576 89.2862 22.0557 89.2775 22.0601 89.289C22.0642 89.2997 22.0714 89.3216 22.0796 89.3582C22.0877 89.3943 22.0958 89.4403 22.1031 89.4975L23.2934 89.3454C23.2719 89.1771 23.238 89.0096 23.1809 88.8604C23.128 88.7218 23.0267 88.5236 22.8221 88.392L22.173 89.4013ZM22.1042 89.5057C22.1248 89.6507 22.1523 89.7906 22.1916 89.9143C22.2256 90.021 22.2913 90.1932 22.4329 90.3302L23.2674 89.4678C23.3114 89.5104 23.3315 89.5474 23.3362 89.5566C23.3419 89.5676 23.3406 89.5676 23.3352 89.5505C23.3239 89.5151 23.308 89.4476 23.2923 89.3372L22.1042 89.5057ZM22.4164 90.3135C24.1189 92.0952 26.2731 93.0974 28.8447 93.3253L28.9506 92.13C26.6504 91.9262 24.7729 91.0426 23.2839 89.4845L22.4164 90.3135ZM29.4975 92.7178L29.3234 82.1592L28.1236 82.179L28.2977 92.7375L29.4975 92.7178ZM28.9059 81.5975C26.3699 80.7879 24.5591 79.8445 23.4158 78.7966L22.605 79.6812C23.9313 80.8969 25.9292 81.9069 28.541 82.7407L28.9059 81.5975ZM23.4218 78.8022C22.3067 77.7517 21.7404 76.4609 21.7145 74.8917L20.5147 74.9115C20.5458 76.7978 21.2434 78.3986 22.5989 79.6756L23.4218 78.8022ZM21.7145 74.8917C21.6884 73.3108 22.2753 71.9365 23.519 70.7407L22.6873 69.8756C21.2215 71.2849 20.4827 72.9728 20.5147 74.9115L21.7145 74.8917ZM23.514 70.7454C24.7993 69.5377 26.4775 68.752 28.5826 68.4113L28.3909 67.2267C26.0913 67.5988 24.1804 68.4726 22.6922 69.8709L23.514 70.7454ZM29.0867 67.8091L29.0392 64.9295L27.8394 64.9493L27.8869 67.8289L29.0867 67.8091ZM28.4492 65.5393L31.5208 65.4887L31.501 64.2888L28.4294 64.3395L28.4492 65.5393ZM31.0937 65.32C30.9715 65.2018 30.9618 65.0703 30.9613 65.0418L32.1612 65.0221C32.1586 64.8656 32.1153 64.6387 31.9281 64.4576L31.0937 65.32ZM30.9613 65.0418C30.9609 65.0135 30.9631 64.992 30.9647 64.9798C30.9664 64.9671 30.9682 64.9589 30.9688 64.9562C30.9699 64.9516 30.9689 64.957 30.9624 64.9751C30.9493 65.012 30.9244 65.0716 30.8826 65.1588L31.9646 65.6777C32.0156 65.5714 32.0601 65.4699 32.0928 65.3779C32.1188 65.305 32.1636 65.1696 32.1612 65.0221L30.9613 65.0418ZM30.9041 65.1181C30.7812 65.3308 30.6927 65.5563 30.6493 65.7934L31.8297 66.0093C31.8451 65.9254 31.8793 65.8289 31.9431 65.7184L30.9041 65.1181ZM30.6396 65.9113L30.6697 67.735L31.8695 67.7152L31.8395 65.8915L30.6396 65.9113ZM31.2153 68.3227C34.0535 68.5806 36.3098 69.7073 38.0276 71.695L38.9356 70.9104C36.9991 68.6697 34.4474 67.4114 31.3239 67.1276L31.2153 68.3227ZM38.0061 70.9367L35.9852 73.5624L36.9361 74.2943L38.9571 71.6686L38.0061 70.9367ZM36.7201 73.3874C36.7854 73.4187 36.8062 73.4573 36.7992 73.446C36.796 73.4409 36.7883 73.4272 36.778 73.4017C36.7678 73.3763 36.7562 73.3424 36.7444 73.2981L35.5851 73.6083C35.6633 73.9004 35.8227 74.2879 36.2012 74.4694L36.7201 73.3874ZM36.7444 73.2981C36.67 73.0204 36.5533 72.7109 36.3333 72.498L35.4989 73.3604C35.479 73.3412 35.4868 73.3406 35.5094 73.3883C35.5308 73.4333 35.5573 73.5042 35.5851 73.6083L36.7444 73.2981ZM36.3668 72.5331C35.1501 71.1487 33.4818 70.3025 31.413 69.9646L31.2196 71.1489C33.0659 71.4505 34.4641 72.1859 35.4654 73.3253L36.3668 72.5331ZM30.7164 70.5666L30.8692 79.8294L32.069 79.8096L31.9162 70.5468L30.7164 70.5666ZM31.2945 80.3935C34.1641 81.2662 36.1279 82.2256 37.2638 83.2377L38.0621 82.3418C36.7293 81.1543 34.5639 80.1335 31.6437 79.2454L31.2945 80.3935ZM37.2696 83.2428C38.388 84.2137 38.9806 85.5515 39.01 87.3281L40.2098 87.3084C40.1758 85.2456 39.4705 83.5643 38.0563 82.3366L37.2696 83.2428ZM39.01 87.3281C39.0281 88.4277 38.7435 89.5131 38.1374 90.5927L39.1838 91.1801C39.8835 89.9338 40.2318 88.6405 40.2098 87.3084L39.01 87.3281ZM38.1348 90.5973C37.5644 91.6349 36.7212 92.5425 35.5865 93.3162L36.2625 94.3077C37.533 93.4414 38.5139 92.3986 39.1864 91.1754L38.1348 90.5973ZM35.5865 93.3162C34.4685 94.0784 33.1588 94.5678 31.6443 94.7749L31.8069 95.9638C33.4856 95.7343 34.9751 95.1853 36.2625 94.3077L35.5865 93.3162ZM31.1257 95.3793L31.1755 98.4029L32.3754 98.3831L32.3255 95.3595L31.1257 95.3793ZM31.7655 97.793L28.9819 97.839L29.0017 99.0388L31.7853 98.9929L31.7655 97.793ZM29.5917 98.429L29.5435 95.5014L28.3436 95.5212L28.3919 98.4488L29.5917 98.429ZM28.4528 69.9599C26.9953 70.1538 25.7989 70.64 24.925 71.468L25.7504 72.3391C26.3891 71.7339 27.3222 71.3209 28.611 71.1494L28.4528 69.9599ZM24.9159 71.4768C24.0787 72.3045 23.6568 73.3148 23.6759 74.4753L24.8757 74.4555C24.8622 73.6322 25.1482 72.9346 25.7595 72.3302L24.9159 71.4768ZM23.6759 74.4753C23.7124 76.6899 25.5036 78.2937 28.4552 79.4182L28.8825 78.2968C26.0369 77.2127 24.8994 75.8883 24.8757 74.4555L23.6759 74.4753ZM29.2688 78.8476L29.1318 70.5448L27.932 70.5646L28.0689 78.8674L29.2688 78.8476ZM31.8022 93.1731C33.3995 92.8398 34.6965 92.1601 35.6469 91.105L34.7553 90.3019C34.0085 91.131 32.9579 91.7061 31.5571 91.9984L31.8022 93.1731ZM35.6396 91.113C36.6124 90.0715 37.1153 88.8782 37.0934 87.5518L35.8935 87.5716C35.9097 88.5488 35.5509 89.45 34.7626 90.2938L35.6396 91.113ZM37.0934 87.5518C37.0724 86.2779 36.6098 85.2177 35.6849 84.435L34.9097 85.351C35.5428 85.8868 35.8776 86.6058 35.8935 87.5716L37.0934 87.5518ZM35.7048 84.4527C34.8575 83.6686 33.4953 83.0169 31.6993 82.4618L31.3449 83.6083C33.0875 84.1469 34.242 84.734 34.8898 85.3334L35.7048 84.4527ZM30.9222 83.0449L31.0797 92.5956L32.2796 92.5759L32.1221 83.0252L30.9222 83.0449ZM46.4263 93.1106L46.4164 92.5107L45.8165 92.5206L45.8264 93.1205L46.4263 93.1106ZM52.0416 93.018L52.0515 93.6179L52.6514 93.608L52.6415 93.0081L52.0416 93.018ZM51.7716 76.6522L52.3715 76.6423L52.3616 76.0424L51.7617 76.0523L51.7716 76.6522ZM46.4444 76.7401L45.8444 76.75L45.8543 77.3499L46.4542 77.34L46.4444 76.7401ZM46.3984 73.9565L46.3885 73.3566L45.7886 73.3665L45.7985 73.9664L46.3984 73.9565ZM55.1812 73.8116L55.7812 73.8017L55.7713 73.2018L55.1713 73.2117L55.1812 73.8116ZM55.4971 92.961L54.8972 92.9709L54.9071 93.5708L55.507 93.5609L55.4971 92.961ZM60.6324 92.8763L61.2323 92.8664L61.2224 92.2665L60.6225 92.2764L60.6324 92.8763ZM60.6783 95.6599L60.6882 96.2599L61.2881 96.25L61.2782 95.65L60.6783 95.6599ZM46.4722 95.8942L45.8723 95.9041L45.8822 96.5041L46.4821 96.4942L46.4722 95.8942ZM51.3401 65.0418L50.9089 64.6246L50.9017 64.632L50.8948 64.6397L51.3401 65.0418ZM54.8444 65.032L54.4135 65.4495L54.427 65.4634L54.4413 65.4764L54.8444 65.032ZM54.9014 68.4875L54.4839 68.0566L54.4769 68.0633L54.4702 68.0703L54.9014 68.4875ZM46.4362 93.7105L52.0515 93.6179L52.0317 92.4181L46.4164 92.5107L46.4362 93.7105ZM52.6415 93.0081L52.3715 76.6423L51.1717 76.6621L51.4416 93.0279L52.6415 93.0081ZM51.7617 76.0523L46.4345 76.1402L46.4542 77.34L51.7815 77.2522L51.7617 76.0523ZM47.0443 76.7302L46.9984 73.9466L45.7985 73.9664L45.8444 76.75L47.0443 76.7302ZM46.4083 74.5564L55.1911 74.4115L55.1713 73.2117L46.3885 73.3566L46.4083 74.5564ZM54.5813 73.8215L54.8972 92.9709L56.097 92.9511L55.7812 73.8017L54.5813 73.8215ZM55.507 93.5609L60.6423 93.4762L60.6225 92.2764L55.4872 92.3611L55.507 93.5609ZM60.0325 92.8862L60.0784 95.6698L61.2782 95.65L61.2323 92.8664L60.0325 92.8862ZM60.6684 95.06L46.4623 95.2943L46.4821 96.4942L60.6882 96.2599L60.6684 95.06ZM47.0722 95.8844L47.0262 93.1007L45.8264 93.1205L45.8723 95.9041L47.0722 95.8844ZM53.1756 68.636C52.6646 68.6444 52.2379 68.4759 51.8631 68.1133L51.0287 68.9757C51.6296 69.5571 52.3626 69.8496 53.1954 69.8358L53.1756 68.636ZM51.8631 68.1133C51.4883 67.7507 51.3058 67.3297 51.2974 66.8187L50.0976 66.8385C50.1113 67.6713 50.4278 68.3943 51.0287 68.9757L51.8631 68.1133ZM51.2974 66.8187C51.2881 66.2548 51.455 65.8098 51.7854 65.4439L50.8948 64.6397C50.3451 65.2484 50.0836 65.9947 50.0976 66.8385L51.2974 66.8187ZM51.7713 65.459C52.1282 65.0901 52.5625 64.9016 53.1139 64.8925L53.0941 63.6927C52.2377 63.7068 51.4961 64.0177 50.9089 64.6246L51.7713 65.459ZM53.1139 64.8925C53.6119 64.8843 54.0348 65.0586 54.4135 65.4495L55.2753 64.6145C54.6773 63.9973 53.9399 63.6787 53.0941 63.6927L53.1139 64.8925ZM54.4413 65.4764C54.8445 65.842 55.0327 66.259 55.0409 66.757L56.2407 66.7372C56.2268 65.8913 55.8841 65.1649 55.2475 64.5875L54.4413 65.4764ZM55.0409 66.757C55.0491 67.255 54.8747 67.6779 54.4839 68.0566L55.3189 68.9184C55.9361 68.3204 56.2547 67.583 56.2407 66.7372L55.0409 66.757ZM54.4702 68.0703C54.1076 68.4451 53.6866 68.6276 53.1756 68.636L53.1954 69.8358C54.0282 69.8221 54.7512 69.5056 55.3326 68.9047L54.4702 68.0703ZM67.1316 73.6145L67.1217 73.0146L66.5218 73.0245L66.5317 73.6244L67.1316 73.6145ZM70.2992 73.5623L70.8991 73.5524L70.8892 72.9525L70.2893 72.9623L70.2992 73.5623ZM70.3348 75.722L69.7349 75.7319L69.7687 77.7821L70.8454 76.037L70.3348 75.722ZM72.2709 73.7698L72.588 74.2791L72.5954 74.2745L72.6026 74.2697L72.2709 73.7698ZM77.2646 73.8314L76.8799 74.292L76.8901 74.3002L77.2646 73.8314ZM78.6944 76.1122L78.1089 76.2434L78.5236 78.0936L79.2488 76.3416L78.6944 76.1122ZM80.6241 73.776L80.9568 74.2753L80.9631 74.2712L80.9692 74.2669L80.6241 73.776ZM86.8264 74.3458L86.3327 74.6868L86.3387 74.6955L86.345 74.704L86.8264 74.3458ZM87.9007 78.3606L87.3009 78.3475L87.3006 78.359L87.3008 78.3705L87.9007 78.3606ZM88.1786 95.2064L88.1885 95.8063L88.7884 95.7964L88.7785 95.1965L88.1786 95.2064ZM85.011 95.2586L84.4111 95.2685L84.421 95.8684L85.0209 95.8585L85.011 95.2586ZM84.168 76.1659L84.6663 75.8317L84.6663 75.8317L84.168 76.1659ZM80.9524 76.2189L80.5212 75.8017L80.5212 75.8017L80.9524 76.2189ZM79.6435 78.3528L79.084 78.1356L79.08 78.1467L79.6435 78.3528ZM79.4437 95.3504L79.4536 95.9503L80.0536 95.9404L80.0437 95.3405L79.4437 95.3504ZM76.2282 95.4035L75.6283 95.4134L75.6382 96.0133L76.2381 96.0034L76.2282 95.4035ZM75.3892 76.5507L74.857 76.8279L74.8655 76.8441L74.8749 76.8599L75.3892 76.5507ZM72.0249 76.3182L72.4253 76.7651L72.4274 76.7632L72.0249 76.3182ZM70.8551 78.1617L71.4127 78.3834L71.4158 78.3753L70.8551 78.1617ZM70.6609 95.4953L70.6708 96.0952L71.2708 96.0853L71.2609 95.4854L70.6609 95.4953ZM67.4934 95.5475L66.8935 95.5574L66.9034 96.1573L67.5033 96.1474L67.4934 95.5475ZM67.1415 74.2144L70.3091 74.1622L70.2893 72.9623L67.1217 73.0146L67.1415 74.2144ZM69.6993 73.5722L69.7349 75.7319L70.9347 75.7121L70.8991 73.5524L69.6993 73.5722ZM70.8454 76.037C71.2964 75.306 71.8761 74.7224 72.588 74.2791L71.9537 73.2604C71.0817 73.8034 70.3706 74.5212 69.8242 75.4069L70.8454 76.037ZM72.6026 74.2697C73.3084 73.8015 74.0258 73.5728 74.7638 73.5606L74.744 72.3608C73.7542 72.3771 72.8163 72.6878 71.9392 73.2698L72.6026 74.2697ZM74.7638 73.5606C75.5847 73.5471 76.2803 73.7911 76.8799 74.2919L77.6492 73.3709C76.8209 72.6791 75.8428 72.3427 74.744 72.3608L74.7638 73.5606ZM76.8901 74.3002C77.5302 74.8115 77.9317 75.453 78.1089 76.2434L79.2799 75.9809C79.0425 74.9219 78.4908 74.0429 77.639 73.3626L76.8901 74.3002ZM79.2488 76.3416C79.6025 75.4869 80.1676 74.8013 80.9568 74.2753L80.2914 73.2767C79.3079 73.9321 78.5865 74.804 78.14 75.8827L79.2488 76.3416ZM80.9692 74.2669C81.7562 73.7136 82.6262 73.431 83.5946 73.415L83.5748 72.2151C82.3674 72.2351 81.2637 72.593 80.2791 73.2852L80.9692 74.2669ZM83.5946 73.415C84.8654 73.394 85.7422 73.832 86.3327 74.6868L87.32 74.0048C86.4678 72.7711 85.1836 72.1886 83.5748 72.2151L83.5946 73.415ZM86.345 74.704C86.9958 75.5786 87.3354 76.7733 87.3009 78.3475L88.5006 78.3738C88.5391 76.6183 88.1625 75.1364 87.3077 73.9876L86.345 74.704ZM87.3008 78.3705L87.5786 95.2162L88.7785 95.1965L88.5006 78.3507L87.3008 78.3705ZM88.1687 94.6064L85.0011 94.6587L85.0209 95.8585L88.1885 95.8063L88.1687 94.6064ZM85.6109 95.2487L85.3544 79.6988L84.1546 79.7186L84.4111 95.2685L85.6109 95.2487ZM85.3544 79.6988C85.3391 78.771 85.2816 77.9877 85.1773 77.3572C85.0754 76.7419 84.9195 76.2091 84.6663 75.8317L83.6697 76.5001C83.7775 76.6608 83.8997 76.9876 83.9934 77.5532C84.0845 78.1036 84.1398 78.8227 84.1546 79.7186L85.3544 79.6988ZM84.6663 75.8317C84.187 75.1171 83.4752 74.7611 82.6089 74.7754L82.6287 75.9753C83.1062 75.9674 83.4271 76.1385 83.6697 76.5001L84.6663 75.8317ZM82.6089 74.7754C81.8261 74.7883 81.1285 75.1741 80.5212 75.8017L81.3837 76.6361C81.8463 76.158 82.2596 75.9814 82.6287 75.9753L82.6089 74.7754ZM80.5212 75.8017C79.9202 76.4229 79.4448 77.2069 79.0841 78.1356L80.2028 78.57C80.5175 77.7594 80.9148 77.1207 81.3837 76.6361L80.5212 75.8017ZM79.08 78.1467C78.7503 79.048 78.5897 79.9557 78.6048 80.8663L79.8046 80.8465C79.7922 80.0934 79.9242 79.3319 80.2069 78.5589L79.08 78.1467ZM78.6048 80.8663L78.8438 95.3603L80.0437 95.3405L79.8046 80.8465L78.6048 80.8663ZM79.4339 94.7505L76.2183 94.8035L76.2381 96.0034L79.4536 95.9503L79.4339 94.7505ZM76.8281 95.3936L76.5764 80.1316L75.3765 80.1514L75.6283 95.4134L76.8281 95.3936ZM76.5764 80.1316C76.5613 79.219 76.5038 78.4404 76.3996 77.8032C76.2971 77.1761 76.1421 76.6387 75.9034 76.2416L74.8749 76.8599C74.9982 77.0648 75.1221 77.427 75.2153 77.9969C75.3069 78.5565 75.362 79.2723 75.3765 80.1514L76.5764 80.1316ZM75.9213 76.2736C75.4535 75.3752 74.5671 75.0041 73.4917 75.0218L73.5115 76.2217C74.2918 76.2088 74.6638 76.4569 74.857 76.8279L75.9213 76.2736ZM73.4917 75.0218C72.8159 75.033 72.1901 75.3596 71.6224 75.8732L72.4274 76.7632C72.8687 76.364 73.2274 76.2263 73.5115 76.2217L73.4917 75.0218ZM71.6245 75.8713C71.0593 76.3777 70.6237 77.0839 70.2944 77.9481L71.4158 78.3753C71.7001 77.6292 72.0442 77.1064 72.4253 76.7651L71.6245 75.8713ZM70.2975 77.9401C69.9551 78.8018 69.8017 79.7819 69.8196 80.8672L71.0194 80.8474C71.0036 79.885 71.1406 79.068 71.4127 78.3833L70.2975 77.9401ZM69.8196 80.8672L70.061 95.5052L71.2609 95.4854L71.0194 80.8474L69.8196 80.8672ZM70.651 94.8954L67.4835 94.9476L67.5033 96.1474L70.6708 96.0952L70.651 94.8954ZM68.0933 95.5376L67.7315 73.6046L66.5317 73.6244L66.8935 95.5574L68.0933 95.5376ZM108.198 74.9054L107.781 75.3367L107.785 75.3407L108.198 74.9054ZM111.023 94.8296L111.033 95.4295L111.633 95.4196L111.623 94.8197L111.023 94.8296ZM107.28 94.8913L106.68 94.9012L106.69 95.5011L107.29 95.4912L107.28 94.8913ZM107.225 91.5318L107.824 91.5219L106.687 91.2644L107.225 91.5318ZM94.0636 94.0051L93.6925 94.4767L93.6992 94.4819L94.0636 94.0051ZM93.3483 85.5678L92.8873 85.1838L92.8873 85.1838L93.3483 85.5678ZM97.2882 82.8624L97.5034 83.4226L97.5093 83.4202L97.2882 82.8624ZM107.788 82.0172L107.72 82.6133L108.455 82.6969L108.385 81.9607L107.788 82.0172ZM105.734 76.8663L105.331 77.31L105.337 77.3161L105.344 77.322L105.734 76.8663ZM97.6566 76.0874L97.4216 75.5353L97.4154 75.538L97.6566 76.0874ZM94.951 77.9563L94.4796 78.3275L94.8962 78.8567L95.3739 78.3819L94.951 77.9563ZM93.2348 75.7763L92.8036 75.3591L92.4392 75.7357L92.7634 76.1475L93.2348 75.7763ZM105.675 90.7412L106.107 91.1584L106.111 91.1534L105.675 90.7412ZM107.831 84.6568L108.431 84.6762L108.448 84.1367L107.914 84.0625L107.831 84.6568ZM101.017 73.1756C104.052 73.1256 106.273 73.8774 107.781 75.3366L108.616 74.4742C106.806 72.7237 104.233 71.9224 100.997 71.9758L101.017 73.1756ZM107.785 75.3407C109.301 76.7791 110.168 79.3318 110.231 83.177L111.431 83.1572C111.366 79.1956 110.477 76.2405 108.611 74.4702L107.785 75.3407ZM110.231 83.177L110.424 94.8395L111.623 94.8197L111.431 83.1572L110.231 83.177ZM111.014 94.2296L107.27 94.2914L107.29 95.4912L111.033 95.4295L111.014 94.2296ZM107.88 94.8814L107.824 91.5219L106.625 91.5417L106.68 94.9012L107.88 94.8814ZM106.687 91.2644C105.513 93.6243 103.282 94.8852 99.7918 94.9428L99.8116 96.1426C103.617 96.0799 106.334 94.6668 107.762 91.7991L106.687 91.2644ZM99.7918 94.9428C97.4437 94.9815 95.6796 94.485 94.4279 93.5284L93.6992 94.4819C95.2351 95.6556 97.2963 96.1841 99.8116 96.1426L99.7918 94.9428ZM94.4346 93.5336C93.1867 92.5517 92.5541 91.263 92.5269 89.6139L91.3271 89.6337C91.36 91.632 92.1518 93.2643 93.6925 94.4767L94.4346 93.5336ZM92.5269 89.6139C92.5039 88.2201 92.9295 87.0083 93.8094 85.9517L92.8873 85.1838C91.8214 86.4637 91.2994 87.9558 91.3271 89.6337L92.5269 89.6139ZM93.8094 85.9517C94.7065 84.8744 95.9294 84.0273 97.5034 83.4225L97.073 82.3024C95.3396 82.9683 93.9358 83.9247 92.8873 85.1838L93.8094 85.9517ZM97.5093 83.4202C99.1201 82.7818 100.898 82.4429 102.85 82.4107L102.83 81.2108C100.75 81.2451 98.8268 81.6073 97.0672 82.3047L97.5093 83.4202ZM102.85 82.4107C104.653 82.3809 106.276 82.4491 107.72 82.6133L107.856 81.421C106.35 81.2498 104.674 81.1804 102.83 81.2108L102.85 82.4107ZM108.385 81.9607C108.147 79.4407 107.436 77.534 106.125 76.4107L105.344 77.322C106.305 78.1455 106.963 79.6727 107.19 82.0736L108.385 81.9607ZM106.138 76.4227C104.878 75.2752 103.063 74.7741 100.804 74.8114L100.824 76.0112C102.916 75.9767 104.381 76.4456 105.331 77.31L106.138 76.4227ZM100.804 74.8114C99.6374 74.8306 98.5087 75.0727 97.4216 75.5354L97.8915 76.6395C98.8384 76.2365 99.8145 76.0278 100.824 76.0112L100.804 74.8114ZM97.4154 75.538C96.3579 76.0022 95.3954 76.6688 94.5281 77.5307L95.3739 78.3819C96.144 77.6166 96.9852 77.0373 97.8977 76.6369L97.4154 75.538ZM95.4224 77.5852L93.7063 75.4052L92.7634 76.1475L94.4796 78.3275L95.4224 77.5852ZM93.666 76.1935C95.5584 74.2377 97.9921 73.2255 101.017 73.1756L100.997 71.9758C97.6869 72.0304 94.9391 73.152 92.8036 75.3591L93.666 76.1935ZM100.104 93.4975C102.594 93.4564 104.62 92.6952 106.107 91.1584L105.244 90.324C104.025 91.5842 102.33 92.2606 100.084 92.2976L100.104 93.4975ZM106.111 91.1534C107.594 89.585 108.343 87.3988 108.431 84.6762L107.232 84.6375C107.15 87.1664 106.462 89.0363 105.239 90.329L106.111 91.1534ZM107.914 84.0625C106.436 83.8575 104.851 83.7698 103.16 83.7977L103.18 84.9976C104.817 84.9706 106.34 85.0557 107.749 85.2511L107.914 84.0625ZM103.16 83.7977C100.673 83.8388 98.644 84.2798 97.126 85.1758L97.7359 86.2092C99.0071 85.4589 100.804 85.0368 103.18 84.9976L103.16 83.7977ZM97.126 85.1758C95.5437 86.1096 94.749 87.5392 94.7795 89.3847L95.9793 89.3649C95.9559 87.9469 96.5289 86.9215 97.7359 86.2092L97.126 85.1758ZM94.7795 89.3847C94.8015 90.7242 95.2606 91.8126 96.2286 92.5359C97.167 93.237 98.4916 93.524 100.104 93.4975L100.084 92.2976C98.593 92.3222 97.5801 92.0477 96.9469 91.5746C96.3433 91.1236 95.9968 90.4251 95.9793 89.3649L94.7795 89.3847ZM122.776 94.2997L122.499 94.8318L122.511 94.8377L122.776 94.2997ZM119.903 91.8027L120.387 91.4487L119.746 90.5718L119.345 91.5811L119.903 91.8027ZM118.75 94.7021L118.76 95.302L119.16 95.2954L119.308 94.9237L118.75 94.7021ZM116.543 94.7385L115.943 94.7484L115.953 95.3483L116.553 95.3384L116.543 94.7385ZM116.016 62.8229L116.006 62.2229L115.406 62.2328L115.416 62.8328L116.016 62.8229ZM119.952 62.758L120.552 62.7481L120.542 62.1481L119.942 62.158L119.952 62.758ZM119.957 63.0939L120.389 63.5111L120.561 63.3325L120.557 63.084L119.957 63.0939ZM119.584 63.7242L119.004 63.5689L118.993 63.6084L118.988 63.6491L119.584 63.7242ZM119.74 76.1073L119.14 76.1172L119.176 78.2999L120.261 76.4054L119.74 76.1073ZM122.525 73.2289L122.216 72.7147L122.21 72.7183L122.525 73.2289ZM134.222 89.6943L134.765 89.9498L134.767 89.9459L134.222 89.6943ZM130.88 93.7339L131.202 94.2402L131.211 94.2348L130.88 93.7339ZM130.242 89.952L130.704 90.3349L130.708 90.3295L130.242 89.952ZM130.127 77.1841L129.649 77.5469L129.654 77.5529L129.658 77.5588L130.127 77.1841ZM121.444 77.5674L121.941 77.9033L121.941 77.9033L121.444 77.5674ZM126.428 94.5035C125.208 94.5236 124.082 94.2751 123.042 93.7616L122.511 94.8377C123.729 95.4392 125.045 95.7264 126.448 95.7033L126.428 94.5035ZM123.054 93.7677C122.009 93.2228 121.121 92.4529 120.387 91.4487L119.418 92.1568C120.256 93.3029 121.284 94.1976 122.499 94.8316L123.054 93.7677ZM119.345 91.5811L118.193 94.4805L119.308 94.9237L120.46 92.0243L119.345 91.5811ZM118.741 94.1022L116.533 94.1386L116.553 95.3384L118.76 95.302L118.741 94.1022ZM117.143 94.7286L116.616 62.813L115.416 62.8328L115.943 94.7484L117.143 94.7286ZM116.026 63.4228L119.962 63.3579L119.942 62.158L116.006 62.2229L116.026 63.4228ZM119.352 62.7678L119.357 63.1038L120.557 63.084L120.552 62.7481L119.352 62.7678ZM119.526 62.6767C119.278 62.9329 119.095 63.2301 119.004 63.5689L120.163 63.8795C120.193 63.7681 120.259 63.6452 120.389 63.5111L119.526 62.6767ZM118.988 63.6491C118.954 63.9203 118.946 64.3427 118.955 64.8867L120.155 64.8669C120.146 64.323 120.157 63.977 120.179 63.7992L118.988 63.6491ZM118.955 64.8867L119.14 76.1172L120.34 76.0974L120.155 64.8669L118.955 64.8867ZM120.261 76.4054C120.895 75.2968 121.753 74.4104 122.84 73.7395L122.21 72.7183C120.952 73.4944 119.953 74.5268 119.219 75.8092L120.261 76.4054ZM122.834 73.7432C123.959 73.0666 125.083 72.7307 126.213 72.7121L126.193 71.5122C124.827 71.5347 123.499 71.9434 122.216 72.7147L122.834 73.7432ZM126.213 72.7121C128.807 72.6693 130.839 73.5319 132.375 75.2794L133.276 74.4872C131.485 72.449 129.102 71.4642 126.193 71.5122L126.213 72.7121ZM132.375 75.2794C133.909 77.0254 134.752 79.6506 134.812 83.2517L136.012 83.2319C135.95 79.474 135.069 76.5268 133.276 74.4872L132.375 75.2794ZM134.812 83.2517C134.852 85.6795 134.465 87.7367 133.677 89.4426L134.767 89.9459C135.647 88.0399 136.054 85.7954 136.012 83.2319L134.812 83.2517ZM133.679 89.4388C132.883 91.1307 131.836 92.3846 130.55 93.2331L131.211 94.2348C132.711 93.245 133.891 91.8059 134.765 89.9498L133.679 89.4388ZM130.558 93.2278C129.253 94.0587 127.879 94.4795 126.428 94.5035L126.448 95.7033C128.133 95.6755 129.721 95.1834 131.202 94.2401L130.558 93.2278ZM125.965 92.6388C127.873 92.6074 129.465 91.8287 130.704 90.3349L129.78 89.569C128.759 90.8008 127.493 91.4135 125.946 91.439L125.965 92.6388ZM130.708 90.3295C131.966 88.7751 132.512 86.453 132.463 83.4824L131.263 83.5022C131.31 86.3548 130.775 88.3392 129.775 89.5744L130.708 90.3295ZM132.463 83.4824C132.416 80.6063 131.826 78.348 130.596 76.8095L129.658 77.5588C130.651 78.7999 131.218 80.7472 131.263 83.5022L132.463 83.4824ZM130.605 76.8214C129.407 75.2429 127.772 74.4626 125.762 74.4957L125.782 75.6956C127.419 75.6686 128.688 76.2805 129.649 77.5469L130.605 76.8214ZM125.762 74.4957C123.755 74.5288 122.139 75.468 120.947 77.2314L121.941 77.9033C122.937 76.4302 124.206 75.7216 125.782 75.6956L125.762 74.4957ZM120.947 77.2314C119.767 78.978 119.223 81.1814 119.267 83.7961L120.466 83.7763C120.426 81.3357 120.935 79.3932 121.941 77.9033L120.947 77.2314ZM119.267 83.7961C119.313 86.6328 119.852 88.8597 120.975 90.381C122.125 91.9393 123.823 92.6742 125.965 92.6388L125.946 91.439C124.12 91.4691 122.82 90.8612 121.94 89.6686C121.033 88.439 120.511 86.5068 120.466 83.7763L119.267 83.7961ZM140.178 72.4097L140.168 71.8098L139.568 71.8197L139.578 72.4196L140.178 72.4097ZM143.681 72.3519L144.281 72.342L144.271 71.7421L143.671 71.752L143.681 72.3519ZM143.752 76.6713L143.153 76.6812L144.33 76.8342L143.752 76.6713ZM146.189 73.0307L145.845 72.5391L145.845 72.5391L146.189 73.0307ZM154.925 72.9826L154.614 73.4959L154.621 73.5001L154.628 73.5041L154.925 72.9826ZM158.347 76.7187L157.813 76.9918L157.813 76.9918L158.347 76.7187ZM158.507 89.2937L159.05 89.5492L159.051 89.5454L158.507 89.2937ZM155.117 93.3342L154.791 92.83L154.786 92.8334L155.117 93.3342ZM146.917 93.9015L146.646 94.4367L146.646 94.4367L146.917 93.9015ZM144.043 91.4045L144.535 91.0602L143.411 89.4569L143.444 91.4144L144.043 91.4045ZM144.223 102.299L144.233 102.899L144.833 102.889L144.823 102.289L144.223 102.299ZM140.672 102.358L140.072 102.368L140.082 102.967L140.682 102.958L140.672 102.358ZM154.384 89.6498L153.932 89.2546L153.932 89.2552L154.384 89.6498ZM154.413 76.8795L153.932 77.2373L153.935 77.2423L154.413 76.8795ZM145.44 77.1236L144.954 76.7715L144.953 76.7732L145.44 77.1236ZM143.874 84.0623L143.274 84.0722L143.275 84.0798L143.275 84.0874L143.874 84.0623ZM145.649 89.7938L146.11 89.41L146.11 89.41L145.649 89.7938ZM140.188 73.0096L143.691 72.9518L143.671 71.752L140.168 71.8098L140.188 73.0096ZM143.081 72.3618L143.153 76.6812L144.352 76.6614L144.281 72.342L143.081 72.3618ZM144.33 76.8342C144.753 75.3361 145.494 74.2493 146.533 73.5222L145.845 72.5391C144.542 73.4509 143.659 74.7911 143.175 76.5084L144.33 76.8342ZM146.533 73.5222C147.594 72.7795 148.859 72.3865 150.354 72.3619L150.334 71.162C148.63 71.1902 147.125 71.643 145.845 72.5391L146.533 73.5222ZM150.354 72.3619C151.908 72.3362 153.323 72.7146 154.614 73.4959L155.236 72.4693C153.747 71.5682 152.108 71.1328 150.334 71.162L150.354 72.3619ZM154.628 73.5041C155.933 74.2463 156.998 75.3973 157.813 76.9918L158.881 76.4455C157.977 74.6759 156.76 73.3362 155.222 72.4611L154.628 73.5041ZM157.813 76.9918C158.621 78.5723 159.058 80.5336 159.097 82.8991L160.297 82.8793C160.256 80.3815 159.793 78.2291 158.881 76.4455L157.813 76.9918ZM159.097 82.8991C159.137 85.2936 158.75 87.3352 157.962 89.0421L159.051 89.5454C159.931 87.6403 160.339 85.4122 160.297 82.8793L159.097 82.8991ZM157.964 89.0382C157.169 90.7268 156.108 91.9803 154.791 92.83L155.442 93.8383C156.975 92.8488 158.174 91.4087 159.05 89.5492L157.964 89.0382ZM154.786 92.8334C153.484 93.6925 152.098 94.1281 150.618 94.1525L150.637 95.3523C152.356 95.324 153.963 94.8141 155.447 93.835L154.786 92.8334ZM150.618 94.1525C149.403 94.1725 148.262 93.9108 147.188 93.3663L146.646 94.4367C147.895 95.07 149.229 95.3756 150.637 95.3523L150.618 94.1525ZM147.188 93.3663C146.115 92.8224 145.233 92.0559 144.535 91.0602L143.552 91.7489C144.362 92.9046 145.395 93.8028 146.646 94.4367L147.188 93.3663ZM143.444 91.4144L143.623 102.309L144.823 102.289L144.643 91.3946L143.444 91.4144ZM144.213 101.699L140.662 101.758L140.682 102.958L144.233 102.899L144.213 101.699ZM141.272 102.348L140.778 72.3998L139.578 72.4196L140.072 102.368L141.272 102.348ZM150.011 92.2902C151.941 92.2584 153.563 91.503 154.836 90.0443L153.932 89.2552C152.881 90.4592 151.58 91.0642 149.991 91.0904L150.011 92.2902ZM154.835 90.0449C156.174 88.5153 156.75 86.1474 156.7 83.0827L155.5 83.1025C155.549 86.0529 154.981 88.0565 153.932 89.2546L154.835 90.0449ZM156.7 83.0827C156.654 80.2984 156.079 78.0815 154.891 76.5168L153.935 77.2423C154.907 78.5223 155.456 80.4475 155.5 83.1025L156.7 83.0827ZM154.895 76.5218C153.69 74.8987 151.983 74.1112 149.856 74.1463L149.875 75.3462C151.651 75.3169 152.977 75.9517 153.932 77.2373L154.895 76.5218ZM149.856 74.1463C147.832 74.1797 146.185 75.0732 144.954 76.7715L145.926 77.4756C146.949 76.0643 148.252 75.373 149.875 75.3462L149.856 74.1463ZM144.953 76.7732C143.747 78.4492 143.222 80.9167 143.274 84.0722L144.474 84.0524C144.424 81.0008 144.943 78.8425 145.927 77.4739L144.953 76.7732ZM143.275 84.0874C143.383 86.6827 143.993 88.7426 145.188 90.1777L146.11 89.41C145.15 88.2563 144.577 86.4951 144.474 84.0373L143.275 84.0874ZM145.188 90.1777C146.392 91.6245 148.023 92.323 150.011 92.2902L149.991 91.0904C148.332 91.1178 147.061 90.552 146.11 89.41L145.188 90.1777Z" fill="#3E3E3E" fill-opacity="0.63"/>
<defs>
<filter id="filter0_d" x="0" y="0" width="178" height="178" filterUnits="userSpaceOnUse" color-interpolation-filters="sRGB">
<feFlood flood-opacity="0" result="BackgroundImageFix"/>
<feColorMatrix in="SourceAlpha" type="matrix" values="0 0 0 0 0 0 0 0 0 0 0 0 0 0 0 0 0 0 127 0"/>
<feOffset dy="4"/>
<feGaussianBlur stdDeviation="2"/>
<feColorMatrix type="matrix" values="0 0 0 0 1 0 0 0 0 0 0 0 0 0 0 0 0 0 1 0"/>
<feBlend mode="normal" in2="BackgroundImageFix" result="effect1_dropShadow"/>
<feBlend mode="normal" in="SourceGraphic" in2="effect1_dropShadow" result="shape"/>
</filter>
</defs>
</svg>
